Coordinates
version=1
nRows=8
nColumns=63
inDegrees=yes

Units are S.I. units (second, meters, Newtons, ...)
If the header above contains a line with 'inDegrees', this indicates whether rotational values are in degrees (yes) or radians (no).

endheader
time	pelvis_tilt	pelvis_list	pelvis_rotation	pelvis_tx	pelvis_ty	pelvis_tz	hip_flexion_r	hip_adduction_r	hip_rotation_r	knee_angle_r	knee_angle_r_beta	ankle_angle_r	subtalar_angle_r	mtp_angle_r	hip_flexion_l	hip_adduction_l	hip_rotation_l	knee_angle_l	knee_angle_l_beta	ankle_angle_l	subtalar_angle_l	mtp_angle_l	L5_S1_Flex_Ext	L5_S1_Lat_Bending	L5_S1_axial_rotation	L4_L5_Flex_Ext	L4_L5_Lat_Bending	L4_L5_axial_rotation	L3_L4_Flex_Ext	L3_L4_Lat_Bending	L3_L4_axial_rotation	L2_L3_Flex_Ext	L2_L3_Lat_Bending	L2_L3_axial_rotation	L1_L2_Flex_Ext	L1_L2_Lat_Bending	L1_L2_axial_rotation	L1_T12_Flex_Ext	L1_T12_Lat_Bending	L1_T12_axial_rotation	Abs_r3	Abs_r2	Abs_r1	Abs_t1	Abs_t2	neck_flexion	neck_bending	neck_rotation	arm_flex_r	arm_add_r	arm_rot_r	elbow_flex_r	pro_sup_r	wrist_flex_r	wrist_dev_r	arm_flex_l	arm_add_l	arm_rot_l	elbow_flex_l	pro_sup_l	wrist_flex_l	wrist_dev_l
3.949153	-1.286619	-3.604318	93.753485	0.220052	0.938975	0.539900	1.424595	-5.719288	-16.583449	16.213089	0.282972	38.364076	2.966972	0.000000	-1.026911	4.507565	20.973030	1.317333	0.022992	34.285653	-13.818925	0.000000	0.179373	-0.337970	-1.860310	0.333113	-0.449501	-1.976580	0.294692	-0.821741	-1.976580	0.205005	-0.821741	-1.627772	0.166566	-0.689189	-1.511502	0.102494	-0.523516	-1.395233	1.281243	-3.823190	-10.346488	0.000000	0.000000	15.262542	0.858805	-2.411033	13.801987	-3.474965	70.337780	29.920546	34.142766	4.695852	15.795550	8.998267	-6.759108	52.113669	36.141396	78.792792	3.293940	-2.937143
3.966102	-1.099266	-4.055335	94.167193	0.219393	0.938625	0.541278	1.896599	-5.564309	-16.902117	16.097148	0.280948	38.179873	2.970798	0.000000	-0.457125	4.345358	21.117460	1.317719	0.022999	34.242758	-13.731416	0.000000	0.189507	-0.321678	-1.954943	0.351933	-0.427831	-2.077127	0.311340	-0.782127	-2.077127	0.216587	-0.782127	-1.710575	0.175976	-0.655965	-1.588391	0.108284	-0.498279	-1.466207	1.353627	-3.638881	-10.872808	0.000000	0.000000	16.016930	0.812579	-2.296634	13.913241	-3.526602	70.598118	29.943939	34.333784	4.586853	15.579675	8.901648	-6.664299	51.539139	36.166723	78.565322	3.551170	-2.199761
3.983051	-0.905406	-4.468948	94.582515	0.218857	0.938350	0.542629	2.316335	-5.380204	-17.078543	15.925203	0.277947	37.972653	2.839233	0.000000	0.067831	4.172021	21.315595	1.298101	0.022656	34.184964	-13.681859	0.000000	0.195971	-0.305135	-2.043406	0.363938	-0.405829	-2.171118	0.321961	-0.741904	-2.171118	0.223975	-0.741904	-1.787980	0.181979	-0.622230	-1.660267	0.111978	-0.472653	-1.532554	1.399802	-3.451743	-11.364809	0.000000	0.000000	16.724296	0.930961	-2.082710	14.023620	-3.575862	70.840197	29.948822	34.477912	4.462135	15.206678	8.821853	-6.586796	51.128214	36.207892	77.505582	3.835387	-1.433833
4.000000	-0.731094	-4.864977	95.031787	0.218364	0.938138	0.543924	2.709561	-5.206473	-17.207108	15.731401	0.274565	37.759190	2.629039	0.000000	0.574348	4.020572	21.653726	1.276756	0.022284	34.064861	-13.765018	0.000000	0.202624	-0.292088	-2.120561	0.376293	-0.388477	-2.253096	0.332891	-0.710183	-2.253096	0.231579	-0.710183	-1.855491	0.188157	-0.595626	-1.722956	0.115779	-0.452444	-1.590421	1.447323	-3.304157	-11.793923	0.000000	0.000000	17.359097	1.108479	-2.006337	14.103052	-3.627829	71.032955	29.936461	34.670109	4.335935	14.637575	8.789746	-6.529062	51.029947	36.225174	76.081443	3.948562	-0.900567
4.016949	-0.563729	-5.238438	95.505559	0.217916	0.937998	0.545133	3.063312	-5.031334	-17.300010	15.501100	0.270545	37.535363	2.373804	0.000000	1.064823	3.877920	21.941390	1.277922	0.022304	33.959234	-13.727390	0.000000	0.209006	-0.280436	-2.188109	0.388145	-0.372980	-2.324865	0.343376	-0.681853	-2.324865	0.238873	-0.681853	-1.914595	0.194083	-0.571866	-1.777838	0.119426	-0.434396	-1.641081	1.492908	-3.172351	-12.169603	0.000000	0.000000	17.898035	1.328525	-2.036517	14.140688	-3.680733	71.113312	29.900043	35.073342	4.240251	13.896174	8.725849	-6.466258	50.881207	36.241159	74.902474	3.986154	-0.450980
4.033898	-0.405230	-5.585949	95.984210	0.217541	0.937940	0.546262	3.383058	-4.853662	-17.321933	15.248336	0.266134	37.290665	2.021560	0.000000	1.532934	3.748428	22.261337	1.297575	0.022647	33.810589	-13.733075	0.000000	0.215175	-0.269776	-2.243591	0.399602	-0.358802	-2.383815	0.353512	-0.655933	-2.383815	0.245924	-0.655933	-1.963142	0.199812	-0.550127	-1.822918	0.122951	-0.417883	-1.682693	1.536976	-3.051757	-12.478179	0.000000	0.000000	18.326818	1.542984	-2.159742	14.161706	-3.726939	71.193833	29.819394	35.525778	4.159537	12.977672	8.704624	-6.430133	51.004904	36.255205	73.341363	3.996236	-0.106470
4.050847	-0.253390	-5.910747	96.479433	0.217183	0.937961	0.547270	3.661188	-4.681186	-17.371775	14.976623	0.261391	37.019420	1.664544	0.000000	1.979559	3.629989	22.650870	1.339262	0.023375	33.611785	-13.819415	0.000000	0.222249	-0.259468	-2.299822	0.412739	-0.345092	-2.443561	0.365133	-0.630870	-2.443561	0.254008	-0.630870	-2.012344	0.206381	-0.529107	-1.868606	0.126993	-0.401916	-1.724867	1.587503	-2.935153	-12.790921	0.000000	0.000000	18.652391	1.735761	-2.354844	14.212283	-3.770015	71.470995	29.695933	35.948976	4.093625	11.866825	8.625002	-6.394074	50.969627	36.305298	72.048342	4.104567	0.266952
4.067797	-0.111375	-6.210396	96.948665	0.216867	0.938071	0.548148	3.901153	-4.514471	-17.391410	14.688901	0.256370	36.702683	1.241863	0.000000	2.391641	3.527601	23.148123	1.382214	0.024124	33.318968	-14.104158	0.000000	0.229769	-0.248974	-2.351145	0.426705	-0.331136	-2.498092	0.377488	-0.605357	-2.498092	0.262604	-0.605357	-2.057252	0.213364	-0.507709	-1.910306	0.131290	-0.385661	-1.763359	1.641220	-2.816449	-13.076366	0.000000	0.000000	18.914214	1.895543	-2.580967	14.275198	-3.796387	71.828903	29.505712	36.448206	4.126729	10.633743	8.564716	-6.362339	51.059905	36.313407	70.725873	4.277015	0.487300
